<svg xmlns:xlink="http://www.w3.org/1999/xlink" xmlns="http://www.w3.org/2000/svg" width="274.33657349967274" height="51.84000000000001" viewBox="0 0 274.33657349967274 51.84000000000001" class="css-1j8o68f"><defs id="SvgjsDefs2832"></defs><g id="SvgjsG2833" featurekey="nameLeftFeature-0" transform="matrix(2.195121746982319,0,0,2.195121746982319,-1.7560967695564857,-0.3414630572190589)" fill="#FFFFFF"><path d="M0.8 11.58 c0 -5.58 0 -7.78 2.8 -7.78 c2.06 0 2.62 1.26 2.76 4.28 l-1.86 0 c-0.08 -2.18 -0.3 -2.68 -0.9 -2.68 c-0.92 0 -0.92 0.98 -0.92 6.18 c0 5.78 0 6.62 0.92 6.62 c0.66 0 0.86 -0.5 0.9 -3.08 l1.88 0 c-0.12 3.7 -0.62 5.08 -2.78 5.08 c-2.8 0 -2.8 -2.22 -2.8 -8.62 z M7.78 20 l0 -8.4 c0 -5.58 0 -7.78 3 -7.78 s3 2.2 3 7.78 l0 8.4 l-2 0 l0 -4.6 l-2 0 l0 4.6 l-2 0 z M9.780000000000001 13.8 l2 0 l0 -2.2 c0 -5.2 0 -6.18 -1 -6.18 s-1 0.98 -1 6.18 l0 2.2 z M15.780000000000001 20 l0 -16 l1.8 0 l2.62 9.8 l-0.02 -0.2 l0 -9.6 l2 0 l0 16 l-1.8 0 l-2.62 -8.8 l0.02 0.2 l0 8.6 l-2 0 z M24.18 20 l0 -16 l3 0 c3 0 3 2.2 3 7.58 c0 6.2 0 8.42 -3 8.42 l-3 0 z M26.18 18 l1 0 c1.12 0 1.12 -0.84 1.12 -6.42 c0 -5 0 -5.98 -1.12 -5.98 l-1 0 l0 12.4 z M31.98 20 l0 -16 l2 0 l0 14 l2.6 0 l0 2 l-4.6 0 z M37.78 20 l0 -16 l4.6 0 l0 1.6 l-2.6 0 l0 5.2 l2.2 0 l0 1.6 l-2.2 0 l0 5.6 l2.6 0 l0 2 l-4.6 0 z" fill="#FFFFFF"></path></g><g id="SvgjsG2834" featurekey="inlineSymbolFeature-0" transform="matrix(0.5184000000000001,0,0,0.5184000000000001,105.79111613159179,0)" fill="#FFFFFF"><g xmlns="http://www.w3.org/2000/svg" fill="#FFFFFF"><g fill="#FFFFFF"><path d="M88.081,100c-1.033,0-1.87-0.836-1.87-1.871V12.213c0-4.67-3.803-8.474-8.473-8.474s-8.469,3.803-8.469,8.474    c0,1.035-0.84,1.871-1.873,1.871s-1.871-0.835-1.871-1.871C65.525,5.478,71.004,0,77.738,0s12.214,5.478,12.214,12.213v85.916    C89.952,99.164,89.113,100,88.081,100z" fill="#FFFFFF"></path><g fill="#FFFFFF"><g fill="#FFFFFF"><g fill="#FFFFFF"><path d="M55.568,44.691c0.011,0.572,0.027,1.078,0.047,1.55C55.598,45.769,55.579,45.266,55.568,44.691z" fill="#FFFFFF"></path><path d="M55.62,46.335c0.085,1.875,0.237,2.991,0.346,3.556c0.071,0.169,0.116,0.338,0.116,0.512       c0,2.503-7.812,4.544-17.409,4.544c-9.624,0-17.424-2.041-17.424-4.544c0-0.171,0.045-0.342,0.114-0.51       c0.134-0.717,0.346-2.306,0.391-5.255c-0.01,0.63-0.029,1.188-0.051,1.697c-7.056,1.361-11.655,3.542-11.655,6.013       c0,4.119,12.819,7.479,28.625,7.479c15.792,0,28.586-3.358,28.586-7.479C67.259,49.877,62.67,47.697,55.62,46.335z" fill="#FFFFFF"></path></g><g fill="#FFFFFF"><path d="M18.618,12.808c0.133,0.269,0.406,0.616,0.858,0.958c0.946,0.648,2.519,1.243,4.475,1.697       c1.948,0.483,4.283,0.819,6.793,1.103c2.521,0.306,5.186,0.521,7.922,0.577c5.4,0.106,10.849-0.406,14.779-1.41       c0.984-0.247,1.869-0.538,2.625-0.856c0.764-0.306,1.371-0.678,1.846-1.021c0.445-0.387,0.701-0.742,0.816-1.027       c0.067-0.312,0.104-0.477,0.104-0.477l0.062,0.01c0-2.92-9.063-5.288-20.226-5.288c-11.176,0-20.252,2.368-20.252,5.288h0.063       C18.484,12.362,18.531,12.517,18.618,12.808z" fill="#FFFFFF"></path><path d="M58.68,13.238c-0.146,0.247-0.338,0.511-0.627,0.778c-0.477,0.379-1.09,0.795-1.855,1.143       c-0.758,0.361-1.646,0.701-2.631,0.995c-3.944,1.229-9.417,1.899-14.912,1.989c-2.714,0.057-5.5-0.012-8.057-0.281       c-2.565-0.292-4.935-0.813-6.92-1.443c-0.994-0.301-1.876-0.693-2.639-1.076c-0.766-0.373-1.383-0.823-1.844-1.239       c-0.208-0.216-0.371-0.424-0.497-0.624c0.53,2.311,1.708,8.328,2.565,19.101c0.391,4.917,0.509,8.552,0.5,11.213       c-0.053,0.149-0.084,0.296-0.084,0.446c0,0.135,0.033,0.267,0.076,0.397c0.754,2.319,8.032,4.146,16.918,4.146       c8.794,0,16.052-1.799,16.896-4.093c0.056-0.149,0.086-0.298,0.086-0.451c0-0.161-0.034-0.322-0.096-0.479       c-0.011-2.659,0.107-6.284,0.496-11.181C56.954,21.397,58.186,15.343,58.68,13.238z" fill="#FFFFFF"></path></g></g><g fill="#FFFFFF"><path d="M35.675,79.229v6.275c0,0,1.219,0.473,3.05,0.473c1.832,0,2.91-0.473,2.91-0.473v-6.275c0,0-1.078-0.474-2.91-0.474      C36.894,78.755,35.675,79.229,35.675,79.229z" fill="#FFFFFF"></path><path d="M57.619,71.803c0,0-3.962,0.053-9.21,2.775c-3.311,1.72-4.13,3.725-6.692,4.805c0.084,0.167,0.214,0.448,0.338,0.823      c0.116,0.371,0.191,0.819,0.245,1.292c0.016,0,0.033,0,0.049,0c0.813,0.021,1.681,0.139,2.549,0.199      c3.468,0.217,6.938,0.583,6.938,0.583v0.167c0,0-3.47,0.371-6.938,0.587c-0.868,0.062-1.736,0.176-2.549,0.2      c-0.018,0-0.035,0-0.051-0.004c-0.053,0.473-0.13,0.925-0.245,1.291c-0.122,0.379-0.252,0.66-0.336,0.822      c2.562,1.08,3.381,3.09,6.692,4.805c5.249,2.724,9.21,2.779,9.21,2.779s3.288-1.377,3.288-10.677      C60.907,72.948,57.619,71.803,57.619,71.803z" fill="#FFFFFF"></path><path d="M32.411,81.697c0.868-0.062,1.736-0.18,2.549-0.199c0.018,0,0.034,0,0.051,0c0.053-0.473,0.13-0.921,0.247-1.292      c0.124-0.375,0.254-0.656,0.336-0.819c-2.563-1.08-3.38-3.089-6.693-4.809c-5.249-2.723-9.21-2.775-9.21-2.775      s-3.289,1.146-3.289,10.449c0,9.3,3.289,10.678,3.289,10.678s3.961-0.058,9.21-2.779c3.311-1.721,4.13-3.726,6.693-4.806      c-0.083-0.163-0.214-0.444-0.338-0.823c-0.116-0.365-0.192-0.817-0.245-1.291c-0.017,0.004-0.033,0.004-0.051,0.004      c-0.813-0.023-1.681-0.139-2.549-0.199c-3.468-0.217-6.938-0.587-6.938-0.587V82.28C25.473,82.28,28.943,81.914,32.411,81.697z" fill="#FFFFFF"></path></g></g></g></g></g><g id="SvgjsG2835" featurekey="nameRightFeature-0" transform="matrix(2.195121746982319,0,0,2.195121746982319,160.5853673343782,-0.3414630572190589)" fill="#FFFFFF"><path d="M5.2 11.58 c0 -5.58 0 -7.78 2.8 -7.78 c2.06 0 2.62 1.26 2.76 4.28 l-1.86 0 c-0.08 -2.18 -0.3 -2.68 -0.9 -2.68 c-0.92 0 -0.92 0.98 -0.92 6.18 c0 5.78 0 6.62 0.92 6.62 c0.66 0 0.86 -0.5 0.9 -3.08 l1.88 0 c-0.12 3.7 -0.62 5.08 -2.78 5.08 c-2.8 0 -2.8 -2.22 -2.8 -8.62 z M12.18 20 l0 -16 l2 0 l0 14 l2.6 0 l0 2 l-4.6 0 z M17.78 11.58 c0 -5.58 0.12 -7.78 3.12 -7.78 s3.12 2.2 3.12 7.78 c0 6.4 -0.12 8.62 -3.12 8.62 s-3.12 -2.22 -3.12 -8.62 z M19.78 11.58 c0 5.78 0 6.62 1.12 6.62 s1.12 -0.84 1.12 -6.62 c0 -5.2 0 -6.18 -1.12 -6.18 s-1.12 0.98 -1.12 6.18 z M25.02 5.800000000000001 l0 -1.8 l6 0 l0 1.8 l-2 0 l0 14.2 l-2 0 l0 -14.2 l-2 0 z M32.22 20 l0 -16 l2 0 l0 6.8 l2 0 l0 -6.8 l2 0 l0 16 l-2 0 l0 -7.6 l-2 0 l0 7.6 l-2 0 z M40.22 20 l0 -16 l4.6 0 l0 1.6 l-2.6 0 l0 5.2 l2.2 0 l0 1.6 l-2.2 0 l0 5.6 l2.6 0 l0 2 l-4.6 0 z M45.82 15.120000000000001 l2.02 0 c0.04 2.58 0.24 3.08 0.96 3.08 c0.98 0 0.98 -0.82 0.98 -3 c0 -3.2 -3.96 -2.34 -3.96 -6.6 c0 -2.5 0 -4.8 3 -4.8 c2.22 0 2.82 1.26 2.96 4.28 l-2 0 c-0.08 -2.18 -0.32 -2.68 -0.96 -2.68 c-0.98 0 -0.98 1.08 -0.98 3.2 c0 3.1 3.98 2 3.98 6.6 c0 2.8 0 5 -3.02 5 c-2.32 0 -2.86 -1.38 -2.98 -5.08 z" fill="#FFFFFF"></path></g></svg>